<svg xmlns="http://www.w3.org/2000/svg" viewBox="0 0 24 24"><symbol viewBox="0 0 24 24" id="556895f7-2c04-45cc-8c6e-07fad344d3c3"><path fill-rule="evenodd" clip-rule="evenodd" d="M7.50049 11.9961C9.98577 11.9961 12.0005 14.0108 12.0005 16.4961C12.0005 18.9814 9.98577 20.9961 7.50049 20.9961C5.01521 20.9961 3.00049 18.9814 3.00049 16.4961C3.00049 14.0108 5.01521 11.9961 7.50049 11.9961ZM7.50049 18.4247L5.57192 16.4961L7.50049 14.5675L9.42906 16.4961L7.50049 18.4247Z" fill="#F0B90B"></path><path fill-rule="evenodd" clip-rule="evenodd" d="M19.5005 5C19.5005 6.38071 18.3812 7.5 17.0005 7.5C15.6198 7.5 14.5005 6.38071 14.5005 5C14.5005 3.61929 15.6198 2.5 17.0005 2.5C18.3812 2.5 19.5005 3.61929 19.5005 5ZM3.00049 3H12.5005V6H6.00049V9.99609H3.00049V3ZM21.0005 15V21H14.0005V18H18.0005V15H21.0005ZM15.3338 9C14.0452 9 13.0005 10.0447 13.0005 11.3333V13H21.0005V11.3333C21.0005 10.0447 19.9558 9 18.6672 9H15.3338Z" fill="currentColor"></path></symbol><use href="#556895f7-2c04-45cc-8c6e-07fad344d3c3"></use></svg>