<svg xmlns="http://www.w3.org/2000/svg" viewBox="0 0 24 24"><symbol viewBox="0 0 24 24" id="800c119a-26a3-4204-8f8d-8a850d92ef3c"><path fill-rule="evenodd" clip-rule="evenodd" d="M4 7.5H20V11.4998H22V15.4998H20V20H4V15.4998H2V11.4998H4V7.5ZM15.5 13.1318C16.3284 13.1318 17 12.4603 17 11.6318C17 10.8034 16.3284 10.1318 15.5 10.1318C14.6716 10.1318 14 10.8034 14 11.6318C14 12.4603 14.6716 13.1318 15.5 13.1318ZM10 11.6318C10 12.4603 9.32843 13.1318 8.5 13.1318C7.67157 13.1318 7 12.4603 7 11.6318C7 10.8034 7.67157 10.1318 8.5 10.1318C9.32843 10.1318 10 10.8034 10 11.6318ZM15 15C15 16.6569 13.6569 18 12 18C10.3431 18 9 16.6569 9 15H15Z" fill="currentColor"></path><path d="M10.5 5H13.5V7.5H10.5V5Z" fill="#F0B90B"></path><path d="M9 4H15V6H9V4Z" fill="#F0B90B"></path></symbol><use href="#800c119a-26a3-4204-8f8d-8a850d92ef3c"></use></svg>